<svg width="24" height="24" viewBox="0 0 24 24" fill="none" xmlns="http://www.w3.org/2000/svg">
  <path d="M10.9714 1.7C8.67631 1.7 6.81429 3.55549 6.81429 5.84615V8.11632C6.41413 8.14898 6.03983 8.18151 5.70462 8.2118C4.23505 8.34459 3.0658 9.49774 2.932 10.9724C2.82435 12.159 2.7 13.7994 2.7 15.0769C2.7 16.3544 2.82435 17.9949 2.932 19.1815C3.0658 20.6561 4.23505 21.8093 5.70462 21.942C7.37201 22.0927 10.0189 22.3 12 22.3C13.9811 22.3 16.628 22.0927 18.2954 21.942C19.765 21.8093 20.9342 20.6561 21.068 19.1815C21.1757 17.9949 21.3 16.3544 21.3 15.0769C21.3 13.7994 21.1757 12.159 21.068 10.9724C20.9342 9.49774 19.765 8.34459 18.2954 8.2118C17.9602 8.18151 17.5859 8.14898 17.1857 8.11632V5.84615C17.1857 3.55549 15.3237 1.7 13.0286 1.7H10.9714ZM5.89785 10.3415C6.49297 10.2878 7.20415 10.2277 7.95837 10.1727L7.97065 10.1718C9.3207 10.0736 10.8016 9.99231 12 9.99231C13.1984 9.99231 14.6793 10.0736 16.0293 10.1718L16.0416 10.1727C16.7959 10.2277 17.507 10.2878 18.1021 10.3415C18.5496 10.382 18.8942 10.7279 18.9339 11.1652C19.0408 12.3439 19.1571 13.9027 19.1571 15.0769C19.1571 16.2512 19.0408 17.8099 18.9339 18.9886C18.8942 19.426 18.5496 19.7719 18.1021 19.8123C16.437 19.9628 13.8751 20.1615 12 20.1615C10.1249 20.1615 7.56298 19.9628 5.89785 19.8123C5.45042 19.7719 5.10581 19.426 5.06613 18.9886C4.95919 17.8099 4.84286 16.2512 4.84286 15.0769C4.84286 13.9027 4.95919 12.3439 5.06613 11.1652C5.10581 10.7279 5.45042 10.382 5.89785 10.3415ZM15.0429 5.84615V7.96255C13.9967 7.89913 12.9263 7.85385 12 7.85385C11.0737 7.85385 10.0033 7.89913 8.95714 7.96255V5.84615C8.95714 4.73814 9.85816 3.83846 10.9714 3.83846H13.0286C14.1418 3.83846 15.0429 4.73814 15.0429 5.84615ZM13.0714 14.0513C13.0714 13.46 12.5909 12.9821 12 12.9821C11.4091 12.9821 10.9286 13.46 10.9286 14.0513V16.1026C10.9286 16.6939 11.4091 17.1718 12 17.1718C12.5909 17.1718 13.0714 16.6939 13.0714 16.1026V14.0513Z" fill="url(#lock_svg)" stroke="url(#lock1_svg)" stroke-width="0.6" stroke-linecap="round" stroke-linejoin="round"/>
  <defs>
  <linearGradient id="lock_svg" x1="3" y1="2" x2="22.1721" y2="3.19493" gradientUnits="userSpaceOnUse">
  <stop stop-color="#FFCC33"/>
  <stop offset="1" stop-color="#E233FF"/>
  </linearGradient>
  <linearGradient id="lock1_svg" x1="3" y1="2" x2="22.1721" y2="3.19493" gradientUnits="userSpaceOnUse">
  <stop stop-color="#FFCC33"/>
  <stop offset="1" stop-color="#E233FF"/>
  </linearGradient>
  </defs>
  </svg>
  