<svg width="17" height="17" viewBox="0 0 17 17" fill="none" xmlns="http://www.w3.org/2000/svg">
<g clip-path="url(#clip0_303_415)">
<path d="M14.5067 2.48767C13.7181 1.69733 12.7812 1.07059 11.7496 0.643436C10.7181 0.216283 9.61231 -0.00286389 8.49583 -0.00141575C3.80099 -0.00141575 -0.00488281 3.80446 -0.00488281 8.49929C-0.00488281 10.8467 0.947117 12.9724 2.48562 14.5109C3.27423 15.3013 4.21121 15.928 5.24275 16.3551C6.27429 16.7823 7.38005 17.0014 8.49653 17C13.1914 17 16.9972 13.1941 16.9972 8.49929C16.9972 6.15188 16.0452 4.02617 14.5067 2.48767V2.48767ZM13.4145 13.4151C12.7694 14.0619 12.0028 14.5748 11.1588 14.9245C10.3148 15.2741 9.41006 15.4534 8.49653 15.4523C4.65524 15.4523 1.54141 12.3385 1.54141 8.49717C1.54026 7.58364 1.71965 6.67889 2.06925 5.83491C2.41885 4.99092 2.93179 4.22434 3.57858 3.57921C4.22355 2.93241 4.99001 2.41947 5.83388 2.06986C6.67775 1.72025 7.5824 1.54087 8.49583 1.54204C12.3364 1.54204 15.4502 4.65588 15.4502 8.49646C15.4514 9.40989 15.2721 10.3145 14.9225 11.1584C14.5729 12.0023 14.0599 12.7688 13.4131 13.4137L13.4145 13.4151Z" fill="#FF0000"/>
<path d="M9.5886 8.5L12.3192 5.76938C12.4539 5.62256 12.5267 5.42939 12.5224 5.23019C12.5181 5.03099 12.437 4.84116 12.296 4.70032C12.1551 4.55948 11.9652 4.47851 11.766 4.47432C11.5668 4.47013 11.3737 4.54304 11.227 4.67783L11.2277 4.67713L8.49706 7.40775L5.76644 4.67713C5.61962 4.54243 5.42645 4.46964 5.22725 4.47396C5.02806 4.47828 4.83822 4.55937 4.69738 4.7003C4.55654 4.84124 4.47557 5.03112 4.47138 5.23032C4.46719 5.42952 4.5401 5.62265 4.6749 5.76938L4.67419 5.76867L7.40481 8.49929L4.67419 11.2299C4.59736 11.3004 4.53559 11.3857 4.49259 11.4807C4.4496 11.5757 4.42627 11.6784 4.42401 11.7826C4.42175 11.8869 4.44061 11.9905 4.47944 12.0872C4.51828 12.184 4.5763 12.2719 4.65 12.3456C4.7237 12.4194 4.81156 12.4775 4.90829 12.5164C5.00503 12.5553 5.10863 12.5742 5.21287 12.572C5.31711 12.5698 5.41983 12.5465 5.51484 12.5036C5.60985 12.4607 5.69519 12.3989 5.76573 12.3222L5.76644 12.3215L8.49706 9.59083L11.2277 12.3215C11.2982 12.3983 11.3835 12.4601 11.4785 12.5031C11.5734 12.546 11.6761 12.5694 11.7804 12.5716C11.8846 12.5739 11.9882 12.555 12.085 12.5162C12.1818 12.4774 12.2697 12.4193 12.3434 12.3456C12.4172 12.2719 12.4752 12.1841 12.5141 12.0874C12.553 11.9906 12.5719 11.887 12.5698 11.7828C12.5676 11.6785 12.5443 11.5758 12.5014 11.4808C12.4584 11.3858 12.3967 11.3005 12.3199 11.2299L12.3192 11.2292L9.5886 8.5Z" fill="#FF0000"/>
</g>
<defs>
<clipPath id="clip0_303_415">
<rect width="17" height="17" fill="white"/>
</clipPath>
</defs>
</svg>
