<svg width="28" height="28" viewBox="0 0 28 28" fill="none" xmlns="http://www.w3.org/2000/svg">
<path d="M22.7612 6.825L15.8312 2.82333C14.6996 2.16999 13.2996 2.16999 12.1562 2.82333L5.23791 6.825C4.10625 7.47833 3.40625 8.69166 3.40625 10.01V17.99C3.40625 19.2967 4.10625 20.51 5.23791 21.175L12.1679 25.1767C13.2996 25.83 14.6996 25.83 15.8429 25.1767L22.7729 21.175C23.9046 20.5217 24.6046 19.3083 24.6046 17.99V10.01C24.5929 8.69166 23.8929 7.49 22.7612 6.825ZM16.6246 15.6333L15.4112 16.3333L14.1979 17.0333C12.6462 17.9317 11.3746 17.1967 11.3746 15.4V14V12.6C11.3746 10.8033 12.6462 10.0683 14.1979 10.9667L15.4112 11.6667L16.6246 12.3667C18.1762 13.265 18.1762 14.735 16.6246 15.6333Z" fill="white"/>
</svg>
