<svg width="20" height="20" viewBox="0 0 20 20" fill="none" xmlns="http://www.w3.org/2000/svg">
<path d="M10.0003 1.66667C5.40849 1.66667 1.66699 5.40816 1.66699 10C1.66699 14.5918 5.40849 18.3333 10.0003 18.3333C14.5922 18.3333 18.3337 14.5918 18.3337 10C18.3337 5.40816 14.5922 1.66667 10.0003 1.66667ZM12.9765 8.72449L9.57516 12.1259C9.40509 12.2109 9.32005 12.2959 9.14999 12.2959C8.97992 12.2959 8.80985 12.2109 8.72482 12.1259L7.02414 10.4252C6.76903 10.1701 6.76903 9.7449 7.02414 9.4898C7.27924 9.23469 7.70441 9.23469 7.95951 9.4898L9.23502 10.7653L12.2112 7.78912C12.4663 7.53401 12.8915 7.53401 13.1466 7.78912C13.2316 8.12925 13.2316 8.46939 12.9765 8.72449Z" fill="#7FFF93"/>
</svg>
